<svg width="512" height="512" viewBox="0 0 512 512" fill="none" xmlns="http://www.w3.org/2000/svg">
<path fill-rule="evenodd" clip-rule="evenodd" d="M256.454 0C230.748 0 209.909 20.8392 209.909 46.5455C209.909 72.2518 230.748 93.091 256.454 93.091C282.16 93.091 302.999 72.2518 302.999 46.5455C302.999 20.8392 282.16 0 256.454 0ZM190.61 23.2728C188.037 30.552 186.637 38.3852 186.637 46.5454C186.637 85.1049 217.896 116.364 256.455 116.364C295.015 116.364 326.273 85.1049 326.273 46.5454C326.273 38.3852 324.873 30.552 322.3 23.2728H445.909C456.954 23.2728 465.909 32.2271 465.909 43.2728V492C465.909 503.046 456.954 512 445.909 512H67C55.9543 512 47 503.046 47 492V43.2728C47 32.2271 55.9543 23.2728 67 23.2728H190.61ZM116.817 186.182C116.817 173.328 127.237 162.909 140.09 162.909H372.817C385.67 162.909 396.09 173.328 396.09 186.182C396.09 199.035 385.671 209.454 372.817 209.454H140.09C127.237 209.454 116.817 199.035 116.817 186.182ZM140.09 279.272C127.237 279.272 116.817 289.692 116.817 302.545C116.817 315.398 127.237 325.818 140.09 325.818H372.817C385.671 325.818 396.09 315.398 396.09 302.545C396.09 289.692 385.67 279.272 372.817 279.272H140.09ZM116.817 418.909C116.817 406.056 127.237 395.636 140.09 395.636H372.817C385.67 395.636 396.09 406.056 396.09 418.909C396.09 431.762 385.671 442.182 372.817 442.182H140.09C127.237 442.182 116.817 431.762 116.817 418.909Z" fill="#F03E3E"/>
</svg>
